<mxfile host="app.diagrams.net" modified="2022-05-02T18:39:57.830Z" agent="5.0 (Macintosh; Intel Mac OS X 10_15_7) AppleWebKit/605.1.15 (KHTML, like Gecko) Version/15.4 Safari/605.1.15" etag="xcATdSbT9H7JBtuV_P2U" version="17.4.6" type="github">
  <diagram id="XukYGl1cH8XfwiXvYvkY" name="Page-1">
    <mxGraphModel dx="1845" dy="690" grid="1" gridSize="10" guides="1" tooltips="1" connect="1" arrows="1" fold="1" page="1" pageScale="1" pageWidth="827" pageHeight="1169" math="0" shadow="0">
      <root>
        <mxCell id="0" />
        <mxCell id="1" parent="0" />
        <mxCell id="r_YXQvdZkXR2VulebaVp-1" value="Consensus Listener" style="rounded=1;whiteSpace=wrap;html=1;" vertex="1" parent="1">
          <mxGeometry x="240" y="480" width="160" height="80" as="geometry" />
        </mxCell>
        <mxCell id="r_YXQvdZkXR2VulebaVp-4" style="edgeStyle=orthogonalEdgeStyle;rounded=0;orthogonalLoop=1;jettySize=auto;html=1;entryX=1;entryY=0.5;entryDx=0;entryDy=0;dashed=1;exitX=0.5;exitY=1;exitDx=0;exitDy=0;" edge="1" parent="1" source="r_YXQvdZkXR2VulebaVp-23" target="r_YXQvdZkXR2VulebaVp-3">
          <mxGeometry relative="1" as="geometry" />
        </mxCell>
        <mxCell id="r_YXQvdZkXR2VulebaVp-9" style="edgeStyle=orthogonalEdgeStyle;rounded=0;orthogonalLoop=1;jettySize=auto;html=1;exitX=0;exitY=0.25;exitDx=0;exitDy=0;entryX=1;entryY=0.25;entryDx=0;entryDy=0;startArrow=classic;startFill=1;endArrow=none;endFill=0;" edge="1" parent="1" source="r_YXQvdZkXR2VulebaVp-2" target="r_YXQvdZkXR2VulebaVp-1">
          <mxGeometry relative="1" as="geometry" />
        </mxCell>
        <mxCell id="r_YXQvdZkXR2VulebaVp-10" style="edgeStyle=orthogonalEdgeStyle;rounded=0;orthogonalLoop=1;jettySize=auto;html=1;exitX=0;exitY=0.75;exitDx=0;exitDy=0;entryX=1;entryY=0.75;entryDx=0;entryDy=0;startArrow=none;startFill=0;endArrow=classic;endFill=1;" edge="1" parent="1" source="r_YXQvdZkXR2VulebaVp-2" target="r_YXQvdZkXR2VulebaVp-1">
          <mxGeometry relative="1" as="geometry" />
        </mxCell>
        <mxCell id="r_YXQvdZkXR2VulebaVp-24" style="edgeStyle=orthogonalEdgeStyle;rounded=0;orthogonalLoop=1;jettySize=auto;html=1;exitX=1;exitY=0.25;exitDx=0;exitDy=0;entryX=0;entryY=0.25;entryDx=0;entryDy=0;dashed=1;dashPattern=1 2;startArrow=none;startFill=0;endArrow=classic;endFill=1;" edge="1" parent="1" source="r_YXQvdZkXR2VulebaVp-2" target="r_YXQvdZkXR2VulebaVp-23">
          <mxGeometry relative="1" as="geometry" />
        </mxCell>
        <mxCell id="r_YXQvdZkXR2VulebaVp-2" value="Authority Server" style="rounded=1;whiteSpace=wrap;html=1;" vertex="1" parent="1">
          <mxGeometry x="480" y="480" width="160" height="80" as="geometry" />
        </mxCell>
        <mxCell id="r_YXQvdZkXR2VulebaVp-15" style="edgeStyle=orthogonalEdgeStyle;rounded=0;orthogonalLoop=1;jettySize=auto;html=1;entryX=0.8;entryY=0;entryDx=0;entryDy=0;entryPerimeter=0;startArrow=none;startFill=0;endArrow=classic;endFill=1;" edge="1" parent="1" source="r_YXQvdZkXR2VulebaVp-3" target="r_YXQvdZkXR2VulebaVp-13">
          <mxGeometry relative="1" as="geometry" />
        </mxCell>
        <mxCell id="r_YXQvdZkXR2VulebaVp-3" value="Network Receiver" style="rounded=1;whiteSpace=wrap;html=1;" vertex="1" parent="1">
          <mxGeometry x="480" y="720" width="160" height="80" as="geometry" />
        </mxCell>
        <mxCell id="r_YXQvdZkXR2VulebaVp-17" style="edgeStyle=orthogonalEdgeStyle;rounded=0;orthogonalLoop=1;jettySize=auto;html=1;exitX=0.75;exitY=1;exitDx=0;exitDy=0;entryX=0.75;entryY=0;entryDx=0;entryDy=0;startArrow=none;startFill=0;endArrow=classic;endFill=1;dashed=1;" edge="1" parent="1" source="r_YXQvdZkXR2VulebaVp-6" target="r_YXQvdZkXR2VulebaVp-2">
          <mxGeometry relative="1" as="geometry" />
        </mxCell>
        <mxCell id="r_YXQvdZkXR2VulebaVp-18" style="edgeStyle=orthogonalEdgeStyle;rounded=0;orthogonalLoop=1;jettySize=auto;html=1;exitX=0.25;exitY=1;exitDx=0;exitDy=0;entryX=0.25;entryY=0;entryDx=0;entryDy=0;startArrow=classic;startFill=1;endArrow=none;endFill=0;dashed=1;" edge="1" parent="1" source="r_YXQvdZkXR2VulebaVp-6" target="r_YXQvdZkXR2VulebaVp-2">
          <mxGeometry relative="1" as="geometry" />
        </mxCell>
        <mxCell id="r_YXQvdZkXR2VulebaVp-6" value="Client" style="rounded=1;whiteSpace=wrap;html=1;" vertex="1" parent="1">
          <mxGeometry x="480" y="240" width="160" height="80" as="geometry" />
        </mxCell>
        <mxCell id="r_YXQvdZkXR2VulebaVp-12" style="edgeStyle=orthogonalEdgeStyle;rounded=0;orthogonalLoop=1;jettySize=auto;html=1;entryX=0.5;entryY=1;entryDx=0;entryDy=0;startArrow=none;startFill=0;endArrow=classic;endFill=1;" edge="1" parent="1" source="r_YXQvdZkXR2VulebaVp-11" target="r_YXQvdZkXR2VulebaVp-1">
          <mxGeometry relative="1" as="geometry" />
        </mxCell>
        <mxCell id="r_YXQvdZkXR2VulebaVp-21" style="edgeStyle=orthogonalEdgeStyle;rounded=0;orthogonalLoop=1;jettySize=auto;html=1;exitX=0;exitY=0.75;exitDx=0;exitDy=0;entryX=0.25;entryY=1;entryDx=0;entryDy=0;dashed=1;startArrow=none;startFill=0;endArrow=classic;endFill=1;dashPattern=1 2;" edge="1" parent="1" source="r_YXQvdZkXR2VulebaVp-11" target="r_YXQvdZkXR2VulebaVp-19">
          <mxGeometry relative="1" as="geometry" />
        </mxCell>
        <mxCell id="r_YXQvdZkXR2VulebaVp-11" value="Executor" style="rounded=1;whiteSpace=wrap;html=1;" vertex="1" parent="1">
          <mxGeometry x="240" y="720" width="160" height="80" as="geometry" />
        </mxCell>
        <mxCell id="r_YXQvdZkXR2VulebaVp-13" value="Various Narwhal/Tusk tasks" style="rounded=1;whiteSpace=wrap;html=1;dashed=1;" vertex="1" parent="1">
          <mxGeometry x="240" y="880" width="400" height="80" as="geometry" />
        </mxCell>
        <mxCell id="r_YXQvdZkXR2VulebaVp-16" style="edgeStyle=orthogonalEdgeStyle;rounded=0;orthogonalLoop=1;jettySize=auto;html=1;entryX=0.8;entryY=0;entryDx=0;entryDy=0;entryPerimeter=0;startArrow=classic;startFill=1;endArrow=none;endFill=0;" edge="1" parent="1">
          <mxGeometry relative="1" as="geometry">
            <mxPoint x="319.5" y="800" as="sourcePoint" />
            <mxPoint x="319.5" y="880" as="targetPoint" />
          </mxGeometry>
        </mxCell>
        <mxCell id="r_YXQvdZkXR2VulebaVp-22" style="edgeStyle=orthogonalEdgeStyle;rounded=0;orthogonalLoop=1;jettySize=auto;html=1;exitX=0.75;exitY=1;exitDx=0;exitDy=0;entryX=0;entryY=0.25;entryDx=0;entryDy=0;dashed=1;dashPattern=1 2;startArrow=none;startFill=0;endArrow=classic;endFill=1;" edge="1" parent="1" source="r_YXQvdZkXR2VulebaVp-19" target="r_YXQvdZkXR2VulebaVp-11">
          <mxGeometry relative="1" as="geometry" />
        </mxCell>
        <mxCell id="r_YXQvdZkXR2VulebaVp-19" value="Authority" style="rounded=1;whiteSpace=wrap;html=1;dashed=1;dashPattern=1 1;" vertex="1" parent="1">
          <mxGeometry y="480" width="160" height="80" as="geometry" />
        </mxCell>
        <mxCell id="r_YXQvdZkXR2VulebaVp-26" style="edgeStyle=orthogonalEdgeStyle;rounded=0;orthogonalLoop=1;jettySize=auto;html=1;exitX=0;exitY=0.75;exitDx=0;exitDy=0;entryX=1;entryY=0.75;entryDx=0;entryDy=0;dashed=1;dashPattern=1 2;startArrow=none;startFill=0;endArrow=classic;endFill=1;" edge="1" parent="1" source="r_YXQvdZkXR2VulebaVp-23" target="r_YXQvdZkXR2VulebaVp-2">
          <mxGeometry relative="1" as="geometry" />
        </mxCell>
        <mxCell id="r_YXQvdZkXR2VulebaVp-23" value="Consensus Submitter" style="rounded=1;whiteSpace=wrap;html=1;dashed=1;dashPattern=1 1;" vertex="1" parent="1">
          <mxGeometry x="720" y="480" width="160" height="80" as="geometry" />
        </mxCell>
        <mxCell id="r_YXQvdZkXR2VulebaVp-27" value="" style="shape=link;html=1;rounded=0;startArrow=none;startFill=0;endArrow=classic;endFill=1;width=-6;dashed=1;" edge="1" parent="1">
          <mxGeometry width="100" relative="1" as="geometry">
            <mxPoint x="-40" y="640" as="sourcePoint" />
            <mxPoint x="921" y="640" as="targetPoint" />
          </mxGeometry>
        </mxCell>
        <mxCell id="r_YXQvdZkXR2VulebaVp-28" value="" style="shape=link;html=1;rounded=0;startArrow=none;startFill=0;endArrow=classic;endFill=1;width=-6;dashed=1;" edge="1" parent="1">
          <mxGeometry width="100" relative="1" as="geometry">
            <mxPoint x="-40" y="400" as="sourcePoint" />
            <mxPoint x="921" y="400" as="targetPoint" />
          </mxGeometry>
        </mxCell>
      </root>
    </mxGraphModel>
  </diagram>
</mxfile>
